<?xml version="1.0" encoding="UTF-8"?>
<svg version="1.1" viewBox="0 0 1200 1200" width="1280" height="1280" xmlns="http://www.w3.org/2000/svg">
<path transform="translate(577,24)" d="m0 0h44l32 2 35 4 33 6 23 5 45 14 30 11 37 17 23 12 20 12 22 14 16 11 17 13 13 11 11 9 12 11 8 7 18 18 7 8 13 14 9 11 11 13 12 16 20 30 12 20 10 18 12 24 13 30 11 30 9 29 9 36 5 28 6 37 1 14v87l-2 22-7 43-9 39-11 35-9 25-9 21-13 28-11 21-16 27-19 28-13 17-10 13-12 14-15 16-7 8-22 22-11 9-10 9-14 11-17 13-14 10-20 13-15 9-22 12-16 8-29 14-29 11-39 12-33 8-39 7-27 4-17 1h-81l-26-2-51-8-36-9-29-9-22-8-20-8-33-15-46-26-24-16-19-14-16-13-14-11-16-15-14-13v-2h-2l-7-8-9-9-7-8-12-14-8-10-14-18-14-20-16-26-14-25-9-17-13-30-11-28-10-32-8-30-6-29-5-34-3-37v-77l4-38 6-34 10-40 13-40 12-30 13-28 13-25 13-22 21-31 11-15 10-13 9-11 9-10 7-8 12-13 17-17 8-7 10-9 11-9 14-11 13-10 33-22 18-11 22-12 27-14 25-11 34-12 26-8 25-6 31-6 26-4 30-3zm-9 40-34 3-33 5-27 6-30 8-32 11-28 11-17 8-19 10-22 12-17 11-15 10-18 13-15 12-11 9-15 14-8 7-10 9-14 15-9 11-9 10-20 26-13 19-14 22-12 21-10 20-7 15-4 8-14 37-8 25-9 36-7 37-3 28-1 14v53l3 40 4 29 6 31 9 34 12 36 11 27 14 29 10 19 14 23 12 18 13 18 13 16 9 11 13 15 9 9 7 8h2v2l8 7 12 11 11 9 13 11 20 15 30 20 24 14 33 17 23 10 39 14 28 8 36 8 35 5 36 3h55l36-3 23-3 39-8 30-8 29-10 31-12 27-13 22-12 20-12 21-14 18-13 16-13 11-9 10-9 8-7 12-11 10-10 7-8 13-15 11-13 7-9 13-18 10-15 12-19 10-18 12-23 12-27 13-35 9-30 8-34 5-29 4-36 1-18v-32l-3-44-5-37-7-34-8-31-12-35-10-24-9-20-13-25-16-27-12-18-10-14-11-14-18-22-12-13-11-12-17-16-10-9-22-18-20-15-27-18-15-9-18-10-23-12-22-10-44-16-32-9-37-8-27-4-37-3z" fill="#2A8D25"/>
<path transform="translate(435,150)" d="m0 0h11l7 3 5 5 4 9-1 8-5 8-5 4-22 9-28 13-24 13-19 12-20 14-14 11-11 9-13 12-10 9-20 20-9 11-9 10-12 16-13 18-12 19-15 28-12 26-4 8-6 6-5 2h-10l-8-4-5-6-2-4v-11l6-16 8-16 12-23 11-18 16-24 14-19 11-14 10-11 9-11 24-24 8-7 13-11 18-14 18-13 23-15 21-13 17-9 37-16z" fill="#2A8D25"/>
<path transform="translate(626,308)" d="m0 0h14l12 3 10 6 8 8 6 12 3 11 2 9 16 8 35 17 22 10h3l8-14 9-9 14-7 9-2h11l12 3 11 7 7 7 8 16 1 4v18l-4 11-7 11-10 8-9 4-9 2h-12l-10-2-9-4-9-8-6-9-4-8-2-8v-4l-6-2-38-18-30-14-7-2-6 10-8 8-14 7-9 2h-8l-20-4-10 9-11 9-15 13-14 12-10 9 1 5 7 11 4 12v18l-3 10-6 10-7 7-10 6-10 3-14 1-13-3-10-6-7-7-8-14-2-7v-16l1-5-5-2-15-9-22-13-24-14-14-8-4 1-11 7-8 3-4 1h-15l-13-4-11-8-7-9-7-14-1-4v-13l4-12 7-11 7-7 10-6 12-3h14l10 3 11 7 9 10 6 13 1 6v10l-2 12v5l9 6 26 15 22 13 16 9 5 2 7-7 11-8 13-4h15l11 1 15-13 12-11 11-9 13-12 11-9-2-5-6-13-2-9v-14l3-11 6-10 7-7 10-6zm3 13-10 3-8 6-6 7-4 9v15l5 10 9 9 8 4 4 1h14l10-4 7-6 6-10 1-4v-15l-4-10-7-8-8-5-9-2zm-276 39-10 3-8 6-4 5-4 9-1 5v9l3 10 4 6 9 8 8 3 12 1 10-2 9-6 6-8 3-8v-17l-5-10-6-7-12-6-4-1zm440 14-10 4-5 4-6 10-3 9v10l3 9 7 9 8 6 10 3h11l9-3 6-4 6-7 4-10 1-13-3-9-5-8-8-7-8-3zm-276 78-11 2-10 5-7 9-3 8-1 10 2 10 4 8 7 7 10 5 11 1 12-3 9-6 6-8 3-8v-15l-4-9-6-8-10-6z" fill="#2A8D25"/>
<path transform="translate(668,514)" d="m0 0h9l12 3 8 4 10 9 6 10 4 13 3 9 16 9 15 9 24 14 17 10 5 2 2-5 11-12 9-6 9-3 5-1h13l13 4 10 7 8 9 5 11 2 9v10l-2 11-6 12-6 7-11 7-12 4h-16l-12-4-10-6-8-9-6-12-2-10-1-8-20-12-21-13-22-13-10-6-3-1-10 15-8 7-12 6-9 2h-9l-15-4-10-6-6-6-4-1-2 4-7 7-7 8-18 20-11 12-9 11-1 3 4 13v12l-4 13-6 10-8 8-10 5-7 1h-24l-9-2-11-9-9-14-3-10v-16l2-10-5-1-55-19-19-6-5 1-14 8-10 2h-10l-14-3-11-7-9-10-6-13-1-4v-19l5-12 6-8 9-8 11-5 10-2h10l12 3 10 6 8 8 6 10 3 9v16l-2 10v5l55 19 20 7 5-1 13-9 9-4 4-1h15l13 4 13 8 7-6 9-10 7-8 12-13 7-8 12-13 4-5-1-11v-10l5-16 8-11 8-7 10-5zm-2 14-9 3-8 6-7 11-2 7v13l6 12 8 8 9 4 10 1 11-2 10-6 7-9 3-8v-14l-4-10-6-8-7-5-11-3zm-290 34-10 3-9 6-7 9-3 8v13l4 10 8 9 9 5 7 2h10l11-4 9-8 5-10 1-3v-17l-5-10-7-7-11-5-5-1zm458 30-11 4-8 7-5 6-3 9v14l4 10 7 8 9 5 4 1h16l10-4 5-4 6-9 2-6v-17l-3-8-9-10-8-4-8-2zm-300 48-9 2-9 5-7 7-4 8-1 4v13l4 10 9 10 10 5h17l9-3 9-8 4-8 2-7v-12l-3-9-6-8-9-6-11-3z" fill="#2A8D25"/>
<path transform="translate(809,824)" d="m0 0 9 1 11 4 5 2 5-5 3-2h13l6 4 3 5v90l-3 10-6 10-8 8-12 7-9 2h-21l-12-4-11-7-3-4-1-5 5-10 7-6 8 1 11 5 3 1h9l7-4 3-4 1-10-6 1-7 2h-15l-11-4-9-7-8-11-5-13-1-9 2-14 4-10 7-9 9-8 10-5zm2 32-8 7-2 5v7l4 7 8 4 5 1 7-3 5-4 2-5v-7l-3-7-6-5z" fill="#2A8D26"/>
<path transform="translate(626,308)" d="m0 0h14l12 3 10 6 8 8 6 12 3 11 2 9 16 8 35 17 22 10h3l8-14 9-9 14-7 9-2h11l12 3 11 7 7 7 8 16 1 4v18l-4 11-7 11-10 8-9 4-9 2h-12l-10-2-9-4-9-8-6-9-4-8-2-8v-4l-6-2-38-18-30-14-7-2-6 10-8 8-14 7-9 2h-8l-20-4-10 9-11 9-15 13-14 12-10 9 1 5 7 11 4 12v18l-3 10-6 10-7 7-10 6-10 3-14 1-13-3-10-6-7-7-8-14-2-7v-16l1-5-5-2-15-9-22-13-24-14-14-8-4 1-11 7-8 3-4 1h-15l-13-4-11-8-7-9-7-14-1-4v-13l4-12 7-11 7-7 10-6 12-3h14l10 3 11 7 9 10 6 13 1 6v10h-1l-2-12-6-11-9-10-10-7-10-4-10-1-10 4-10 7-5 5-7 8-3 7-1 11 1 8 6 12 9 10 10 6 9 2h12l9-2 11-8 4-4 5 2 17 10 27 16 20 12 20 13-1 15 2 13 5 9 7 8 10 6 9 3h9l16-5 9-6 7-7 6-10 2-7v-8l-4-13-7-10-2-4-4-2-2-2v-3l8-7 13-12 8-7 14-12 8-7 14-12 4-2 9 2 8 2h15l11-4 8-6 7-8 7-10 20 9 36 17 22 11 7 4 5 16 6 10 9 8 11 5 5 2h12l9-3 10-6 5-4 1-2h2l2-5 5-9 1-13-2-12-3-7-7-9-10-7-13-3h-14l-11 4-9 6-7 9-6 14-4 1-33-16-23-11-26-13-1-16-3-10-8-11-11-7-11-4h-14l-11 4-9 6-8 10-4 10-1 3v18l4 9 7 10-1 5-16 15-20 18-11 9-14 12-5 5-11-1-11-2-12 3-11 6-6 5-6 7-2 3-1-2-6-3-13-8-16-9-24-14-25-15-1-3 7-12 2-3-1 15 9 6 26 15 22 13 16 9 5 2 7-7 11-8 13-4h15l11 1 15-13 12-11 11-9 13-12 11-9-2-5-6-13-2-9v-14l3-11 6-10 7-7 10-6z" fill="#489C48"/>
<path transform="translate(668,514)" d="m0 0h9l12 3 8 4 10 9 6 10 4 13 3 9 16 9 15 9 24 14 17 10 5 2 2-5 11-12 9-6 9-3 5-1h13l13 4 10 7 8 9 5 11 1 9-2-3-3-7-7-11-11-8-8-4-6-2h-14l-12 4-10 8-7 10-4 7-10-4-28-17-17-10-30-18v-9l-4-13-7-9-8-7-12-6-10-2-10 1-10 4-10 9-6 9-3 9-1 10 1 16-7 8-12 13-9 11-15 16-18 20-2 5-7-6-8-6-9-4-10-2-10 1-12 5-9 8-3 5-10-3-24-9-43-15-10-4-1-4 5-10 1-5v-10l-3-10-5-9-8-9-12-6-3-1h-20l-10 4-8 6-6 7-4 8-2 7v12l3 10 6 10 8 8 11 5 3 1h17l10-3 11-8 4-2 12 5 32 11 36 13 6 3 1 3-2 8v16l4 11 7 10 9 8 10 5 10 1 9-2 10-6 10-9 7-9 3-7 1-11-3-12-3-8h2l2-5 11-12 7-8 11-12 8-8 9-11 9-9 2-3 6 1v2l4 2 7 6 9 5 13 2 13-2 10-5 9-8 8-13 2-3 6 2 25 14 23 14 19 12 11 7 2 18 6 11 8 8 9 5 9 3h15l11-4 9-6 7-7 7-12 2-3-1 9-6 12-6 7-11 7-12 4h-16l-12-4-10-6-8-9-6-12-2-10-1-8-20-12-21-13-22-13-10-6-3-1-10 15-8 7-12 6-9 2h-9l-15-4-10-6-6-6-4-1-2 4-7 7-7 8-18 20-11 12-9 11-1 3 4 13v12l-4 13-6 10-8 8-10 5-7 1h-24l-9-2-11-9-9-14-3-10v-16l2-10-5-1-55-19-19-6-5 1-14 8-10 2h-10l-14-3-11-7-9-10-6-13-1-4v-19l5-12 6-8 9-8 11-5 10-2h10l12 3 10 6 8 8 6 10 3 9v16l-2 10v5l55 19 20 7 5-1 13-9 9-4 4-1h15l13 4 13 8 7-6 9-10 7-8 12-13 7-8 12-13 4-5-1-11v-10l5-16 8-11 8-7 10-5z" fill="#489C48"/>
<path transform="translate(953,824)" d="m0 0h7l9 3 4 5 1 12-1 68-6 7-14 1-8-3-4-4-11 6-6 1h-10l-12-5-9-7-7-8-7-14-1-4v-19l4-12 7-10 7-7 12-7 7-2h11l12 5 5 2 2-4zm-31 32-6 3-5 6-1 3v9l4 6 4 4 3 1h8l7-4 4-7v-9l-3-6-6-5z" fill="#2B8D26"/>
<path transform="translate(299,824)" d="m0 0h8l9 4 3 4v81l-6 6-14 1-7-3-3-3-5 1-8 4-5 1h-10l-11-4-10-7-8-9-6-12-2-6v-19l4-11 7-11 7-7 10-6 9-3h11l12 5 4 1 9-6zm-31 32-8 4-4 6-1 7 2 7 5 6 5 2h9l6-4 4-6 1-8-4-8-6-5-2-1z" fill="#2A8D26"/>
<path transform="translate(476,824)" d="m0 0h8l10 5 3 4 4-2 11-6h13l11 4 9 7 6 7 6 12 2 8 1 10v29l-1 10-6 7-7 1h-8l-7-3-3-4-1-5-1-42-4-6-6-3h-9l-6 4-3 4-1 3-1 41-2 6-4 4-16 1-5-2-4-5-1-3v-74l3-7z" fill="#2B8D26"/>
<path transform="translate(674,824)" d="m0 0h9l7 3 4 4 1 3 1 43 3 6 4 3 3 1h9l7-4 3-6 1-5 1-40 5-6 5-2h10l8 4 3 5v78l-4 6-3 2-6 1h-9l-7-3-2-5-7 3-8 4-4 1h-10l-11-4-11-8-7-10-4-10-2-10v-45l3-5z" fill="#2B8D26"/>
<path transform="translate(598,824)" d="m0 0h29l13 5 7 6-1 7-6 9-3 2-7-1-8-3h-16l-1 5 6 4 19 4 10 4 8 9 2 6v18l-4 10-8 7-7 3-15 2h-14l-14-2-13-7-3-5 1-8 6-9 2-2h9l15 7h12l2-1 1-5-16-3-13-5-9-6-4-7-3-8v-15l3-8 5-6 11-6z" fill="#2B8D27"/>
<path transform="translate(370,554)" d="m0 0h20l12 5 10 9 6 10 3 7 1 5v10l-3 10-3 6 1 3 44 15 30 11 12 5 2-5 10-9 12-5 10-1 13 3 11 6 8 7 4 5 5 13 1 9-2 11-7 11-10 10-11 7-5 2-12 1-8-3-10-6-8-8-7-12-2-7v-16l2-10-11-5-74-26h-4l-10 8-7 3-5 1h-17l-12-5-8-7-6-7-5-11-1-5v-12l3-10 7-10 9-8 8-4zm6 8-10 3-9 6-7 9-3 8v13l4 10 8 9 9 5 7 2h10l11-4 9-8 5-10 1-3v-17l-5-10-7-7-11-5-5-1zm158 78-9 2-9 5-7 7-4 8-1 4v13l4 10 9 10 10 5h17l9-3 9-8 4-8 2-7v-12l-3-9-6-8-9-6-11-3z" fill="#2A8D25"/>
<path transform="translate(346,824)" d="m0 0h8l10 5 2 2 5-1 8-5 2-1h13l9 4 4 6v9l-6 11-4 3-21-1-5 2-3 4-1 13-1 38-6 6-14 1-8-2-3-4v-82l4-5z" fill="#2B8D26"/>
<path transform="translate(501,68)" d="m0 0 4 1 1 3-28 6-27 7-36 12-31 12-17 8-19 10-22 12-17 11-15 10-18 13-15 12-11 9-15 14-8 7-10 9-12 13-11 13-7 8-11 14-10 13-13 19-14 22-12 21-10 20-7 15-4 8-14 37-8 25-9 36-7 37-3 28-1 14-1 36h-3l-1-10v-28l2-12 2-32 2-8 2-16 3-13 8-31 6-20 7-19 5-14 16-36 12-22 13-22 7-11 8-12 11-16 14-18 11-13 7-9 16-17 17-17 8-7 8-8 28-22 17-12 15-10 13-8 17-10 23-12 16-8 18-8 20-8 25-9 35-10 19-5z" fill="#459A45"/>
<path transform="translate(428,825)" d="m0 0h11l7 3 3 4v81l-4 6-6 1h-11l-5-2-4-5-1-9 1-72 5-5z" fill="#2A8D25"/>
<path transform="translate(352,347)" d="m0 0h14l10 3 11 7 9 10 6 13 1 6v10h-1l-2-12-6-11-9-10-10-7-10-4-10-1-10 4-10 7-5 5-7 8-3 7-1 11 1 8 6 12 9 10 10 6 9 2h12l9-2 11-8 4-4 5 2 17 10 27 16 20 12 20 13-1 15 2 13 5 9 7 8 10 6 9 3h9l16-5 9-6 7-7 8-13h1l-1 8-5 9-9 10-10 6-10 3-14 1-13-3-10-6-7-7-8-14-2-7v-16l1-5-5-2-15-9-22-13-24-14-14-8-4 1-11 7-8 3-4 1h-15l-13-4-11-8-7-9-7-14-1-4v-13l4-12 7-11 7-7 10-6z" fill="#479B47"/>
<path transform="translate(1172,643)" d="m0 0h1v15l-5 35-6 32-4 16-7 26-11 31-14 35-6 13 1 3-11 22-13 23-12 19-15 22-13 17-10 13-12 14-15 16-7 8-22 22-11 9-10 9-14 11-17 13-14 10-20 13-15 9-22 12-16 8-29 14-29 11-39 12-33 8-15 3h-6l2-4 45-9 13-4 17-5 35-12 9-4 10-4 30-15 17-9 15-9 20-13 14-10 11-8 16-13 10-8 14-12 16-15 20-20 1-2h2l2-4 8-8 7-8 9-10 11-14 12-16 13-19 11-18 4-6 6-11 6-12 1-3h2l2-7 7-14 5-13h2l2-9 5-12 6-17 8-24 8-27 8-37 7-40z" fill="#479B47"/>
<path transform="translate(440,185)" d="m0 0 3 1 3 3-22 9-15 7-25 13-20 12-19 13-16 12-16 13-13 12-10 9-20 20-9 11-9 10-12 16-13 18-12 19-15 28-12 26-4 8-6 6-4 1 2-5 14-26 10-21 10-18 7-11 15-22 10-13 8-10 12-14 9-10 7-8 19-19 8-7 10-8 16-13 19-13 17-11 32-17 34-17 5-3z" fill="#479B47"/>
<path transform="translate(530,634)" d="m0 0h12l12 5 9 7 6 7 4 8 2 13-3 12-7 11-11 9-10 5-4 1h-8l-9-3-6-4-8-7-7-12-3-11v-7l4-13 7-9 7-6 10-5zm4 6-9 2-9 5-7 7-4 8-1 4v13l4 10 9 10 10 5h17l9-3 9-8 4-8 2-7v-12l-3-9-6-8-9-6-11-3z" fill="#489C48"/>
<path transform="translate(353,353)" d="m0 0h9l11 4 11 7 8 9 5 9 1 4v13l-5 10-6 8-7 7-10 5-4 1h-13l-10-4-8-5-8-9-4-8-2-6v-13l3-8 6-8 8-8 12-7zm0 7-10 3-8 6-4 5-4 9-1 5v9l3 10 4 6 9 8 8 3 12 1 10-2 9-6 6-8 3-8v-17l-5-10-6-7-12-6-4-1z" fill="#489C48"/>
<path transform="translate(514,446)" d="m0 0h7l10 3 10 6 8 8 6 11 1 5v11l-7 14-8 8-9 6-12 4h-9l-10-4-10-8-6-8-3-7v-23l6-10 8-9 10-5zm3 6-11 2-10 5-7 9-3 8-1 10 2 10 4 8 7 7 10 5 11 1 12-3 9-6 6-8 3-8v-15l-4-9-6-8-10-6z" fill="#489C48"/>
<path transform="translate(837,586)" d="m0 0 10 1 12 6 10 9 6 10 2 5v14l-6 12-8 9-9 6-9 3h-12l-11-4-9-7-7-8-4-9v-15l5-12 7-9 8-6 9-4zm-3 6-11 4-8 7-5 6-3 9v14l4 10 7 8 9 5 4 1h16l10-4 5-4 6-9 2-6v-17l-3-8-9-10-8-4-8-2z" fill="#489C48"/>
<path transform="translate(667,522)" d="m0 0h11l9 4 9 5 7 7 6 11 1 4v12l-5 13-4 6-8 7-12 6-5 1h-11l-12-6-12-12-4-10-1-4v-11l3-10 6-9 4-5 11-7zm-1 6-9 3-8 6-7 11-2 7v13l6 12 8 8 9 4 10 1 11-2 10-6 7-9 3-8v-14l-4-10-6-8-7-5-11-3z" fill="#489C48"/>
<path transform="translate(795,368)" d="m0 0h14l11 4 9 7 5 6 5 11v16l-5 12-9 10-7 5-9 3-8 1-11-2-12-7-2-4h-2l-5-7-3-7-1-5v-8l2-10 5-10 8-9 8-4zm-2 6-10 4-5 4-6 10-3 9v10l3 9 7 9 8 6 10 3h11l9-3 6-4 6-7 4-10 1-13-3-9-5-8-8-7-8-3z" fill="#489C48"/>
<path transform="translate(628,315)" d="m0 0h13l10 4 6 4 8 8 5 11 1 6v10l-3 9-7 10-7 7-10 5-3 1h-14l-12-5-10-9-6-12-1-4v-16l4-10 7-9h2v-2l10-6zm1 6-10 3-8 6-6 7-4 9v15l5 10 9 9 8 4 4 1h14l10-4 7-6 6-10 1-4v-15l-4-10-7-8-8-5-9-2z" fill="#489C48"/>
<path transform="translate(376,557)" d="m0 0h8l12 3 10 7 7 10 4 10v13l-5 12-5 7-11 8-7 3h-20l-10-6-7-7-6-9-2-9v-11l3-10 7-10 9-7 8-3zm0 5-10 3-9 6-7 9-3 8v13l4 10 8 9 9 5 7 2h10l11-4 9-8 5-10 1-3v-17l-5-10-7-7-11-5-5-1z" fill="#489C48"/>
<path transform="translate(430,780)" d="m0 0h8l7 3 4 5 1 3v12l-4 7-7 2h-12l-5-3-3-4-1-4v-10l2-5 6-5z" fill="#2B8D26"/>
<path transform="translate(690,67)" d="m0 0 11 1 22 5 28 8 16 5 26 9 29 12 25 12 17 9 11 6 12 7-3 2-3-3-6-1-1-2-3 1-29-16-31-15-38-14-18-6-25-7-37-8 4-1v-2h-8z" fill="#449A43"/>
<path transform="translate(1109,337)" d="m0 0h4l14 29 11 27 10 28 9 30 7 29 4 21-1 11 2 14h-2l-3-12-1-8-5-25-8-35-7-24-10-30-4-9-9-21-4-10-7-13z" fill="#469B46"/>
<path transform="translate(68,703)" d="m0 0 3 1 2 2h1l8 34 11 36 13 34 11 24 6 13h-2l5 9 7 14v2h-2l-4-7v-4h-2l-5-10-9-17-5-13-5-12-4-9-5-14-4-10-7-21-7-25-6-26z" fill="#469B46"/>
<path transform="translate(1172,643)" d="m0 0h1v15l-5 35-6 32-4 16-7 26-11 31-14 35-5 10h-2l5-15h2l2-9 5-12 6-17 8-24 8-27 8-37 7-40z" fill="#489C48"/>
<path transform="translate(1173,664)" d="m0 0 1 4-7 43-9 39-11 35-9 25-9 21-8 16-2 1 2-6 10-24 12-31 8-24 7-26 3-12 7-39 3-18z" fill="#32912E"/>
<path transform="translate(288,236)" d="m0 0h5l-5 5-11 10-8 7-8 8h-2v2l-17 17-9 11-5 6-1-2 4-8 12-13 7-8 19-19 8-7z" fill="#459A45"/>
<path transform="translate(1119,843)" d="m0 0 2 4-2 6-14 27-15 25h-2l-1-4 6-10 10-18 4-8 1-3h2l2-7 6-11z" fill="#3E973D"/>
<path transform="translate(862,830)" d="m0 0 2 3v90l-3 10h-1v-14l1-27z" fill="#479B47"/>
<path transform="translate(472,1158)" d="m0 0 9 1 1 1 7 1 3 1 13 2 1 5 4-1v2l-10-1-23-4-9-2v-1h5v-2l-2-1z" fill="#459A44"/>
<path transform="translate(107,816)" d="m0 0 3 3 12 25 1 3h-2l5 9 7 14v2h-2l-4-7v-4h-2l-5-10-9-17-4-9 1-4z" fill="#41983F"/>
<path transform="translate(587,58)" d="m0 0h27l-2 3h-3v2h14v1l-66 1v-1l7-1v-4h4 2l3 3h4v-3h5l-1 3h20l-4-2-10-1z" fill="#479B47"/>
<path transform="translate(554,850)" d="m0 0 2 3 3 10 1 10v29l-2-1-4-37v-6l-2-6z" fill="#469B46"/>
<path transform="translate(62,553)" d="m0 0 2 3-1 47h-3l-1-10v-28l2-11z" fill="#489C48"/>
<path transform="translate(690,828)" d="m0 0 4 3 1 3 1 45-1 7h-2l-2-47z" fill="#469B46"/>
<path transform="translate(1173,664)" d="m0 0 1 4-7 43-7 31-2-1 1-8 5-24 7-41z" fill="#32912E"/>
<path transform="translate(146,888)" d="m0 0 4 4 9 14 5 8-4 3v-3l-3-1v-3l-3-3-2-5-3-3 1-2-4-1v-4l-2-1v-2z" fill="#449A43"/>
<path transform="translate(1102,877)" d="m0 0 1 2-2 3-1 7-10 16h-2l-1-4 6-10 7-12z" fill="#41983F"/>
<path transform="translate(1175,559)" d="m0 0h1v87h-1l-1-17-1-5h1v-6l-1-4h2l-1-9 1-7-2-1h2z" fill="#489C48"/>
<path transform="translate(733,39)" d="m0 0 11 2 17 5-3 4-5-1-1-3-1 2-6-2v-2h-12z" fill="#459A45"/>
<path transform="translate(494,866)" d="m0 0 2 2v41l-2-4-2-2 2-2v-5h-1l-1-6 1-15z" fill="#469B46"/>
<path transform="translate(464,836)" d="m0 0 1 3 2 1v6h-2l1 7v12l-1 7h2l-1 2-1 36h-1z" fill="#489C48"/>
<path transform="translate(1095,311)" d="m0 0h4l12 22 1 3h-4l-7-13v-3l-2-1z" fill="#429941"/>
<path transform="translate(587,58)" d="m0 0h27l-2 3h-3v2h14v1h-20l-5-4-11-1z" fill="#479B47"/>
<path transform="translate(445,44)" d="m0 0h3l-1 5-3-1v2l-4 1h-2l-2 2-5 1v-6z" fill="#469B46"/>
<path transform="translate(422,1145)" d="m0 0 4 1 1 1h7l4 3-1 2 2 2-7-1-13-4 2-1z" fill="#429941"/>
<path transform="translate(453,1154)" d="m0 0 9 1 2 3v3l-8-1-11-3 1-2h6z" fill="#439942"/>
<path transform="translate(1166,707)" d="m0 0 1 4-7 31-2-1 1-8 5-23z" fill="#349230"/>
<path transform="translate(393,1134)" d="m0 0 16 5 3 3-7 2-9-3v-3l-4-3z" fill="#3D963B"/>
<path transform="translate(507,31)" d="m0 0 5 1-1 4-7 1-5 1-4-5z" fill="#479B47"/>
<path transform="translate(863,908)" d="m0 0h1v15l-3 10h-1v-14l1-10z" fill="#469B46"/>
<path transform="translate(136,872)" d="m0 0 4 4 6 10-1 2-4-1-4-4-3-6 1-2h1z" fill="#459A45"/>
<path transform="translate(1132,818)" d="m0 0 1 4-11 24-3 2 2-6 9-21z" fill="#30902C"/>
<path transform="translate(430,780)" d="m0 0h8l7 3 1 2-13-1h-6v2h-2l-1-4z" fill="#479B46"/>
<path transform="translate(781,53)" d="m0 0 11 3 5 2-2 1 1 3-5-1v-3l-5 1-9-3 1-2 2 1z" fill="#439942"/>
<path transform="translate(121,847)" d="m0 0 3 1 9 17 3 5-1 2-5-6-5-10-4-6z" fill="#349231"/>
<path transform="translate(472,1158)" d="m0 0 4 1 8 4v2h-7l-9-2v-1h5v-2l-2-1z" fill="#3A9537"/>
<path transform="translate(125,345)" d="m0 0 1 4-10 19-2 1 3-9z" fill="#349231"/>
<path transform="translate(1108,868)" d="m0 0 1 4-7 13h-2l3-12 3-3h2z" fill="#3D963B"/>
<path transform="translate(69,824)" d="m0 0h2l2 5 2 4v3l2 1 3 8v2h-2l-9-21z" fill="#429941"/>
<path transform="translate(1139,800)" d="m0 0h2l-3 10-4 10-2-2 1-5 5-12z" fill="#33912F"/>
<path transform="translate(690,67)" d="m0 0 11 1 9 3-4 1-8 1-5-1 4-1v-2h-8z" fill="#489C48"/>
<path transform="translate(474,37)" d="m0 0h5v2h-2v3l-8 1v-2l-3 1-1-3z" fill="#469B46"/>
<path transform="translate(1175,613)" d="m0 0h1v33h-1l-1-17-1-5h1v-6l-1-4z" fill="#469B46"/>
<path transform="translate(423,783)" d="m0 0h1v6l-1 2v4h-2v-2l-2-1v9h-1v-10l2-5z" fill="#469B45"/>
<path transform="translate(501,68)" d="m0 0 4 1 1 3-11 1-3-1 3-3z" fill="#429941"/>
<path transform="translate(1103,322)" d="m0 0 3 1 6 13h-4l-4-8z" fill="#3E973C"/>
<path transform="translate(564,59)" d="m0 0h4 2l4 5-6 1h-11v-1l7-1z" fill="#449A44"/>
<path transform="translate(122,853)" d="m0 0h2l6 10 3 7v2h-2l-4-7v-4h-2z" fill="#489C48"/>
<path transform="translate(1102,877)" d="m0 0 1 2-2 3-1 7-5 1 2-6z" fill="#479B47"/>
<path transform="translate(156,904)" d="m0 0 5 5 3 5-4 3v-3l-3-1z" fill="#3E973C"/>
<path transform="translate(1119,843)" d="m0 0 2 4-2 6-1 2h-2l-1-6z" fill="#419840"/>
<path transform="translate(1111,860)" d="m0 0 1 2-1 7-2 2-3-1 2-8z" fill="#469B46"/>
<path transform="translate(248,830)" d="m0 0 2 1v4h-5v-3zm-6 4 2 1-9 9v-3z" fill="#3D963B"/>
<path transform="translate(422,1145)" d="m0 0 4 1 1 1 3 1v3l-8-1-3-2h2z" fill="#3E973D"/>
<path transform="translate(179,938)" d="m0 0 5 1 5 7-4 1v-2h-2l-2-5h-2z" fill="#459A44"/>
<path transform="translate(476,824)" d="m0 0h8l-5 5-7-2 1-2z" fill="#489C48"/>
<path transform="translate(220,306)" d="m0 0 4 1-6 7-4 1 2-4z" fill="#3B9539"/>
<path transform="translate(379,1129)" d="m0 0 4 1 4 2-1 4-5-1-1-3-2-2z" fill="#469B45"/>
<path transform="translate(862,917)" d="m0 0 2 4-2 10-2 2v-10z" fill="#3F973E"/>
<path transform="translate(139,881)" d="m0 0h4l3 5-1 2-4-1-3-3z" fill="#3B9539"/>
<path transform="translate(590,827)" d="m0 0h2l-2 4-10 5 2-4z" fill="#479B46"/>
<path transform="translate(448,788)" d="m0 0 2 3v12l-2-4-2-9z" fill="#479B46"/>
<path transform="translate(66,690)" d="m0 0 3 1 1 3 2 1-1 4v-3l-1 5h-3z" fill="#479B46"/>
<path transform="translate(1165,511)" d="m0 0 2 1 2 14h-2l-3-14z" fill="#489C48"/>
<path transform="translate(1101,399)" d="m0 0v3l3 10-1 4-5-13v-3z" fill="#489C48"/>
<path transform="translate(873,133)" d="m0 0 14 8-3 2-3-3-6-1z" fill="#489C48"/>
<path transform="translate(702,71)" d="m0 0 8 1 4 1v2l-11-1-2-2z" fill="#30902C"/>
<path transform="translate(460,40)" d="m0 0 3 1h2l-1 4-5 1-3-5z" fill="#489C48"/>
<path transform="translate(402,1138)" d="m0 0 7 1 3 3-7 2 1-3h-4z" fill="#489C48"/>
<path transform="translate(34,710)" d="m0 0 4 4-1 2 1 6-2 2-2-10z" fill="#489C48"/>
<path transform="translate(69,696)" d="m0 0h2l2 5v6l-3-2-1-7z" fill="#2F8F2B"/>
<path transform="translate(346,1115)" d="m0 0h5l1 4-5 1-2-2z" fill="#439942"/>
<path transform="translate(1164,488)" d="m0 0 2 2 1 5v8h-1v-5l-2-1-1-8z" fill="#2F8F2B"/>
<path transform="translate(903,153)" d="m0 0 6 2 3 3v2l-3 1v-2l-2-1-4-3z" fill="#469B46"/>
<path transform="translate(419,52)" d="m0 0 4 1 2 3-5 1v-2h-2l-1 2-1-4z" fill="#489C48"/>
</svg>
